<mxfile host="app.diagrams.net" modified="2020-10-16T14:42:36.304Z" agent="5.0 (Windows NT 10.0; Win64; x64) AppleWebKit/537.36 (KHTML, like Gecko) Chrome/86.0.4240.75 Safari/537.36" etag="jMuAtZ78veVS3suLJWaD" version="13.8.0" type="github">
  <diagram id="C5RBs43oDa-KdzZeNtuy" name="Page-1">
    <mxGraphModel dx="1422" dy="800" grid="1" gridSize="10" guides="1" tooltips="1" connect="1" arrows="1" fold="1" page="1" pageScale="1" pageWidth="827" pageHeight="1169" math="0" shadow="0">
      <root>
        <mxCell id="WIyWlLk6GJQsqaUBKTNV-0" />
        <mxCell id="WIyWlLk6GJQsqaUBKTNV-1" parent="WIyWlLk6GJQsqaUBKTNV-0" />
        <mxCell id="YCP_qmW_2ORranNoIO9P-1" value="" style="whiteSpace=wrap;html=1;aspect=fixed;" parent="WIyWlLk6GJQsqaUBKTNV-1" vertex="1">
          <mxGeometry x="80.51" y="60" width="408.99" height="230" as="geometry" />
        </mxCell>
        <mxCell id="YCP_qmW_2ORranNoIO9P-47" style="edgeStyle=orthogonalEdgeStyle;rounded=0;orthogonalLoop=1;jettySize=auto;html=1;" parent="WIyWlLk6GJQsqaUBKTNV-1" source="YCP_qmW_2ORranNoIO9P-7" edge="1">
          <mxGeometry relative="1" as="geometry">
            <mxPoint x="50" y="810" as="targetPoint" />
          </mxGeometry>
        </mxCell>
        <mxCell id="YCP_qmW_2ORranNoIO9P-7" value="새로운 게임" style="text;html=1;strokeColor=none;fillColor=none;align=center;verticalAlign=middle;whiteSpace=wrap;rounded=0;" parent="WIyWlLk6GJQsqaUBKTNV-1" vertex="1">
          <mxGeometry x="240" y="180" width="90" height="20" as="geometry" />
        </mxCell>
        <mxCell id="YCP_qmW_2ORranNoIO9P-8" value="불러오기" style="text;html=1;strokeColor=none;fillColor=none;align=center;verticalAlign=middle;whiteSpace=wrap;rounded=0;" parent="WIyWlLk6GJQsqaUBKTNV-1" vertex="1">
          <mxGeometry x="240" y="200" width="90" height="20" as="geometry" />
        </mxCell>
        <mxCell id="YCP_qmW_2ORranNoIO9P-9" value="종료" style="text;html=1;strokeColor=none;fillColor=none;align=center;verticalAlign=middle;whiteSpace=wrap;rounded=0;" parent="WIyWlLk6GJQsqaUBKTNV-1" vertex="1">
          <mxGeometry x="240" y="245" width="90" height="20" as="geometry" />
        </mxCell>
        <mxCell id="YCP_qmW_2ORranNoIO9P-10" value="설정" style="text;html=1;strokeColor=none;fillColor=none;align=center;verticalAlign=middle;whiteSpace=wrap;rounded=0;" parent="WIyWlLk6GJQsqaUBKTNV-1" vertex="1">
          <mxGeometry x="240" y="223" width="90" height="20" as="geometry" />
        </mxCell>
        <mxCell id="YCP_qmW_2ORranNoIO9P-11" value="0.0 시작" style="text;html=1;strokeColor=none;fillColor=none;align=center;verticalAlign=middle;whiteSpace=wrap;rounded=0;" parent="WIyWlLk6GJQsqaUBKTNV-1" vertex="1">
          <mxGeometry x="80" y="40" width="73" height="20" as="geometry" />
        </mxCell>
        <mxCell id="YCP_qmW_2ORranNoIO9P-16" value="" style="whiteSpace=wrap;html=1;aspect=fixed;" parent="WIyWlLk6GJQsqaUBKTNV-1" vertex="1">
          <mxGeometry x="130" y="320" width="408.99" height="230" as="geometry" />
        </mxCell>
        <mxCell id="YCP_qmW_2ORranNoIO9P-12" style="edgeStyle=orthogonalEdgeStyle;rounded=0;orthogonalLoop=1;jettySize=auto;html=1;" parent="WIyWlLk6GJQsqaUBKTNV-1" source="YCP_qmW_2ORranNoIO9P-8" target="YCP_qmW_2ORranNoIO9P-16" edge="1">
          <mxGeometry relative="1" as="geometry">
            <mxPoint x="360" y="310" as="targetPoint" />
            <Array as="points">
              <mxPoint x="350" y="210" />
            </Array>
          </mxGeometry>
        </mxCell>
        <mxCell id="YCP_qmW_2ORranNoIO9P-19" value="" style="rounded=1;whiteSpace=wrap;html=1;" parent="WIyWlLk6GJQsqaUBKTNV-1" vertex="1">
          <mxGeometry x="140" y="330" width="270" height="70" as="geometry" />
        </mxCell>
        <mxCell id="YCP_qmW_2ORranNoIO9P-48" style="edgeStyle=orthogonalEdgeStyle;rounded=0;orthogonalLoop=1;jettySize=auto;html=1;" parent="WIyWlLk6GJQsqaUBKTNV-1" source="YCP_qmW_2ORranNoIO9P-20" edge="1">
          <mxGeometry relative="1" as="geometry">
            <mxPoint x="80" y="810" as="targetPoint" />
            <Array as="points">
              <mxPoint x="80" y="350" />
            </Array>
          </mxGeometry>
        </mxCell>
        <mxCell id="YCP_qmW_2ORranNoIO9P-20" value="save 1" style="text;html=1;strokeColor=none;fillColor=none;align=center;verticalAlign=middle;whiteSpace=wrap;rounded=0;" parent="WIyWlLk6GJQsqaUBKTNV-1" vertex="1">
          <mxGeometry x="150" y="340" width="40" height="20" as="geometry" />
        </mxCell>
        <mxCell id="YCP_qmW_2ORranNoIO9P-21" value="" style="rounded=1;whiteSpace=wrap;html=1;" parent="WIyWlLk6GJQsqaUBKTNV-1" vertex="1">
          <mxGeometry x="141" y="410" width="270" height="70" as="geometry" />
        </mxCell>
        <mxCell id="YCP_qmW_2ORranNoIO9P-22" value="save 2" style="text;html=1;strokeColor=none;fillColor=none;align=center;verticalAlign=middle;whiteSpace=wrap;rounded=0;" parent="WIyWlLk6GJQsqaUBKTNV-1" vertex="1">
          <mxGeometry x="150" y="420" width="40" height="20" as="geometry" />
        </mxCell>
        <mxCell id="YCP_qmW_2ORranNoIO9P-24" value="" style="rounded=1;whiteSpace=wrap;html=1;" parent="WIyWlLk6GJQsqaUBKTNV-1" vertex="1">
          <mxGeometry x="144" y="490" width="270" height="70" as="geometry" />
        </mxCell>
        <mxCell id="YCP_qmW_2ORranNoIO9P-25" value="save 3" style="text;html=1;strokeColor=none;fillColor=none;align=center;verticalAlign=middle;whiteSpace=wrap;rounded=0;" parent="WIyWlLk6GJQsqaUBKTNV-1" vertex="1">
          <mxGeometry x="153" y="500" width="40" height="20" as="geometry" />
        </mxCell>
        <mxCell id="YCP_qmW_2ORranNoIO9P-26" value="" style="triangle;whiteSpace=wrap;html=1;rotation=90;" parent="WIyWlLk6GJQsqaUBKTNV-1" vertex="1">
          <mxGeometry x="330" y="515" width="20" height="35" as="geometry" />
        </mxCell>
        <mxCell id="YCP_qmW_2ORranNoIO9P-27" value="" style="triangle;whiteSpace=wrap;html=1;rotation=-90;" parent="WIyWlLk6GJQsqaUBKTNV-1" vertex="1">
          <mxGeometry x="324.49" y="320" width="20" height="35" as="geometry" />
        </mxCell>
        <mxCell id="YCP_qmW_2ORranNoIO9P-28" value="Event:Mouseleave" style="text;html=1;strokeColor=none;fillColor=none;align=center;verticalAlign=middle;whiteSpace=wrap;rounded=0;" parent="WIyWlLk6GJQsqaUBKTNV-1" vertex="1">
          <mxGeometry x="284.49" y="350" width="100" height="20" as="geometry" />
        </mxCell>
        <mxCell id="YCP_qmW_2ORranNoIO9P-29" value="Event:Mouseleave" style="text;html=1;strokeColor=none;fillColor=none;align=center;verticalAlign=middle;whiteSpace=wrap;rounded=0;" parent="WIyWlLk6GJQsqaUBKTNV-1" vertex="1">
          <mxGeometry x="290" y="500" width="100" height="20" as="geometry" />
        </mxCell>
        <mxCell id="YCP_qmW_2ORranNoIO9P-35" value="" style="rounded=1;whiteSpace=wrap;html=1;" parent="WIyWlLk6GJQsqaUBKTNV-1" vertex="1">
          <mxGeometry x="144" y="570" width="270" height="70" as="geometry" />
        </mxCell>
        <mxCell id="YCP_qmW_2ORranNoIO9P-36" value="save 4" style="text;html=1;strokeColor=none;fillColor=none;align=center;verticalAlign=middle;whiteSpace=wrap;rounded=0;" parent="WIyWlLk6GJQsqaUBKTNV-1" vertex="1">
          <mxGeometry x="153" y="580" width="40" height="20" as="geometry" />
        </mxCell>
        <mxCell id="YCP_qmW_2ORranNoIO9P-37" value="0.1 savefile page" style="text;html=1;strokeColor=none;fillColor=none;align=center;verticalAlign=middle;whiteSpace=wrap;rounded=0;" parent="WIyWlLk6GJQsqaUBKTNV-1" vertex="1">
          <mxGeometry x="130" y="300" width="130" height="20" as="geometry" />
        </mxCell>
        <mxCell id="YCP_qmW_2ORranNoIO9P-38" value="load&lt;span style=&quot;color: rgba(0 , 0 , 0 , 0) ; font-family: monospace ; font-size: 0px&quot;&gt;%3CmxGraphModel%3E%3Croot%3E%3CmxCell%20id%3D%220%22%2F%3E%3CmxCell%20id%3D%221%22%20parent%3D%220%22%2F%3E%3CmxCell%20id%3D%222%22%20value%3D%22%22%20style%3D%22rounded%3D1%3BwhiteSpace%3Dwrap%3Bhtml%3D1%3B%22%20vertex%3D%221%22%20parent%3D%221%22%3E%3CmxGeometry%20x%3D%22144%22%20y%3D%22490%22%20width%3D%22270%22%20height%3D%2270%22%20as%3D%22geometry%22%2F%3E%3C%2FmxCell%3E%3CmxCell%20id%3D%223%22%20value%3D%22save%203%22%20style%3D%22text%3Bhtml%3D1%3BstrokeColor%3Dnone%3BfillColor%3Dnone%3Balign%3Dcenter%3BverticalAlign%3Dmiddle%3BwhiteSpace%3Dwrap%3Brounded%3D0%3B%22%20vertex%3D%221%22%20parent%3D%221%22%3E%3CmxGeometry%20x%3D%22153%22%20y%3D%22500%22%20width%3D%2240%22%20height%3D%2220%22%20as%3D%22geometry%22%2F%3E%3C%2FmxCell%3E%3C%2Froot%3E%3C%2FmxGraphModel%3E(1&lt;/span&gt;" style="text;html=1;strokeColor=none;fillColor=none;align=center;verticalAlign=middle;whiteSpace=wrap;rounded=0;" parent="WIyWlLk6GJQsqaUBKTNV-1" vertex="1">
          <mxGeometry x="153" y="370" width="57" height="20" as="geometry" />
        </mxCell>
        <mxCell id="YCP_qmW_2ORranNoIO9P-45" style="edgeStyle=orthogonalEdgeStyle;rounded=0;orthogonalLoop=1;jettySize=auto;html=1;exitX=1;exitY=0.5;exitDx=0;exitDy=0;" parent="WIyWlLk6GJQsqaUBKTNV-1" source="YCP_qmW_2ORranNoIO9P-39" edge="1">
          <mxGeometry relative="1" as="geometry">
            <mxPoint x="600" y="380" as="targetPoint" />
          </mxGeometry>
        </mxCell>
        <mxCell id="YCP_qmW_2ORranNoIO9P-39" value="delete" style="text;html=1;strokeColor=none;fillColor=none;align=center;verticalAlign=middle;whiteSpace=wrap;rounded=0;" parent="WIyWlLk6GJQsqaUBKTNV-1" vertex="1">
          <mxGeometry x="220" y="370" width="70" height="20" as="geometry" />
        </mxCell>
        <mxCell id="YCP_qmW_2ORranNoIO9P-41" value="Are you sure you want to&lt;br&gt;delete this file?" style="text;html=1;strokeColor=none;fillColor=none;align=center;verticalAlign=middle;whiteSpace=wrap;rounded=0;" parent="WIyWlLk6GJQsqaUBKTNV-1" vertex="1">
          <mxGeometry x="640" y="350" width="160" height="80" as="geometry" />
        </mxCell>
        <mxCell id="YCP_qmW_2ORranNoIO9P-42" value="yse" style="text;html=1;strokeColor=none;fillColor=none;align=center;verticalAlign=middle;whiteSpace=wrap;rounded=0;" parent="WIyWlLk6GJQsqaUBKTNV-1" vertex="1">
          <mxGeometry x="660" y="420" width="40" height="20" as="geometry" />
        </mxCell>
        <mxCell id="YCP_qmW_2ORranNoIO9P-43" value="no" style="text;html=1;strokeColor=none;fillColor=none;align=center;verticalAlign=middle;whiteSpace=wrap;rounded=0;" parent="WIyWlLk6GJQsqaUBKTNV-1" vertex="1">
          <mxGeometry x="740" y="420" width="40" height="20" as="geometry" />
        </mxCell>
        <mxCell id="YCP_qmW_2ORranNoIO9P-44" value="0.0.1 savefile delete(overlap)" style="text;html=1;strokeColor=none;fillColor=none;align=center;verticalAlign=middle;whiteSpace=wrap;rounded=0;" parent="WIyWlLk6GJQsqaUBKTNV-1" vertex="1">
          <mxGeometry x="610" y="350" width="170" height="20" as="geometry" />
        </mxCell>
        <mxCell id="YCP_qmW_2ORranNoIO9P-49" value="" style="whiteSpace=wrap;html=1;aspect=fixed;" parent="WIyWlLk6GJQsqaUBKTNV-1" vertex="1">
          <mxGeometry x="30" y="840" width="408.99" height="230" as="geometry" />
        </mxCell>
        <mxCell id="YCP_qmW_2ORranNoIO9P-52" value="" style="shape=umlActor;verticalLabelPosition=bottom;verticalAlign=top;html=1;" parent="WIyWlLk6GJQsqaUBKTNV-1" vertex="1">
          <mxGeometry x="229.49" y="990" width="10" height="20" as="geometry" />
        </mxCell>
        <mxCell id="YCP_qmW_2ORranNoIO9P-55" value="mp" style="rounded=1;whiteSpace=wrap;html=1;" parent="WIyWlLk6GJQsqaUBKTNV-1" vertex="1">
          <mxGeometry x="245" y="1050" width="45" height="10" as="geometry" />
        </mxCell>
        <mxCell id="YCP_qmW_2ORranNoIO9P-56" value="hp" style="rounded=1;whiteSpace=wrap;html=1;" parent="WIyWlLk6GJQsqaUBKTNV-1" vertex="1">
          <mxGeometry x="190" y="1050" width="40" height="10" as="geometry" />
        </mxCell>
      </root>
    </mxGraphModel>
  </diagram>
</mxfile>
